<svg width="16" height="17" fill="none" xmlns="http://www.w3.org/2000/svg"><g clip-path="url(#clip0_275_565)"><path d="M14.528 12.632a8.698 8.698 0 0 1-.86 1.546c-.453.645-.823 1.091-1.108 1.34-.443.406-.917.615-1.425.626-.364 0-.803-.103-1.315-.314-.513-.209-.985-.313-1.416-.313-.453 0-.938.104-1.457.313-.52.21-.938.32-1.258.331-.487.021-.972-.193-1.456-.644-.31-.27-.696-.731-1.16-1.386a9.591 9.591 0 0 1-1.225-2.435c-.343-.998-.515-1.965-.515-2.901 0-1.073.232-1.997.696-2.772a4.082 4.082 0 0 1 1.457-1.474 3.92 3.92 0 0 1 1.97-.556c.387 0 .894.12 1.524.354.629.236 1.032.356 1.209.356.132 0 .58-.14 1.34-.419.719-.258 1.325-.365 1.822-.323 1.346.108 2.357.639 3.03 1.595-1.204.73-1.8 1.751-1.788 3.062.011 1.02.381 1.87 1.11 2.545.33.313.698.555 1.107.727-.088.258-.182.504-.282.742zM11.441.482c0 .8-.293 1.548-.875 2.24-.704.822-1.554 1.297-2.476 1.222a2.492 2.492 0 0 1-.019-.303c0-.769.334-1.59.928-2.263.297-.34.674-.623 1.131-.849.456-.222.888-.345 1.294-.366.012.107.017.214.017.32z" fill="#000"/></g><defs><clipPath id="clip0_275_565"><path fill="#fff" transform="translate(0 .163)" d="M0 0H16V16H0z"/></clipPath></defs></svg>