<svg width="17" height="17" fill="none" xmlns="http://www.w3.org/2000/svg"><g clip-path="url(#clip0_275_559)"><path fill-rule="evenodd" clip-rule="evenodd" d="M8.507.163C4.079.163.5 3.768.5 8.229a8.06 8.06 0 0 0 5.475 7.652c.397.08.543-.174.543-.387 0-.187-.013-.828-.013-1.496-2.227.48-2.691-.962-2.691-.962-.358-.935-.888-1.175-.888-1.175-.73-.494.053-.494.053-.494.808.053 1.233.828 1.233.828.715 1.229 1.869.881 2.333.668.066-.521.278-.882.503-1.082-1.776-.187-3.645-.881-3.645-3.98 0-.881.318-1.602.822-2.163-.08-.2-.358-1.028.08-2.137 0 0 .676-.214 2.2.828a7.698 7.698 0 0 1 2.002-.267 7.7 7.7 0 0 1 2.001.267c1.525-1.042 2.2-.828 2.2-.828.438 1.109.16 1.937.08 2.137.517.56.822 1.282.822 2.163 0 3.099-1.869 3.78-3.659 3.98.292.254.544.734.544 1.496 0 1.081-.013 1.95-.013 2.216 0 .214.146.468.543.388A8.06 8.06 0 0 0 16.5 8.229c.013-4.46-3.58-8.066-7.993-8.066z" fill="#24292F"/></g><defs><clipPath id="clip0_275_559"><path fill="#fff" transform="translate(.5 .163)" d="M0 0H16V16H0z"/></clipPath></defs></svg>