<svg width="16" height="17" fill="none" xmlns="http://www.w3.org/2000/svg"><g clip-path="url(#clip0_273_1204)"><path d="M8 6.708v3.098h4.305a3.689 3.689 0 0 1-1.607 2.408l2.596 2.014c1.513-1.396 2.386-3.447 2.386-5.884 0-.567-.051-1.112-.146-1.636H8z" fill="#4285F4"/><path d="M3.516 9.685l-.585.448-2.073 1.615c1.316 2.61 4.014 4.414 7.142 4.414 2.16 0 3.97-.712 5.294-1.934l-2.596-2.015c-.713.48-1.622.771-2.698.771-2.08 0-3.848-1.403-4.48-3.294l-.004-.005z" fill="#34A853"/><path d="M.858 4.577A7.901 7.901 0 0 0 0 8.163c0 1.294.313 2.509.858 3.585 0 .007 2.662-2.065 2.662-2.065-.16-.48-.255-.99-.255-1.52 0-.532.095-1.04.255-1.52L.858 4.576z" fill="#FBBC05"/><path d="M8 3.348c1.178 0 2.225.407 3.062 1.193l2.29-2.291C11.963.955 10.16.163 8 .163 4.873.163 2.174 1.959.858 4.577L3.52 6.643C4.153 4.752 5.92 3.348 8 3.348z" fill="#EA4335"/></g><defs><clipPath id="clip0_273_1204"><path fill="#fff" transform="translate(0 .163)" d="M0 0H16V16H0z"/></clipPath></defs></svg>