<svg width="50" height="51" fill="none" xmlns="http://www.w3.org/2000/svg"><path d="M39.168 39.404c-4.233 4.205-8.64 5.837-14.168 5.837-11.052 0-20.045-8.932-20.045-19.91 0-10.977 8.993-19.91 20.045-19.91 9.342 0 17.215 6.382 19.426 14.989h5.08C47.203 9.066 37.09.5 25 .5 11.218.5 0 11.642 0 25.331c0 13.69 11.218 24.832 25 24.832a25.024 25.024 0 0 0 17.671-7.28L50 50.163V28.237" fill="#000"/><path d="M47.033 25.331H25l7.698 7.647A10.904 10.904 0 0 1 25 36.152c-6.005 0-10.894-4.856-10.894-10.82 0-3.001 1.237-5.722 3.233-7.684l-3.494-3.487c-2.897 2.852-4.694 6.805-4.694 11.17 0 8.682 7.109 15.743 15.849 15.743 4.37 0 7.217-.52 11.201-4.617" fill="#000"/></svg>